<svg xmlns="http://www.w3.org/2000/svg" viewBox="0 0 128 128">
  <defs>
    <radialGradient id="bg" cx="68%" cy="24%" r="76%">
      <stop offset="0" stop-color="#ff3ea9" stop-opacity="0.9"/>
      <stop offset="0.42" stop-color="#15102a"/>
      <stop offset="1" stop-color="#03040a"/>
    </radialGradient>
    <linearGradient id="ring" x1="16" y1="18" x2="112" y2="112">
      <stop stop-color="#22d3ee"/>
      <stop offset="0.5" stop-color="#ff2ec4"/>
      <stop offset="1" stop-color="#8b5cf6"/>
    </linearGradient>
    <filter id="glow" x="-45%" y="-45%" width="190%" height="190%">
      <feGaussianBlur stdDeviation="4" result="blur"/>
      <feMerge>
        <feMergeNode in="blur"/>
        <feMergeNode in="SourceGraphic"/>
      </feMerge>
    </filter>
  </defs>
  <rect width="128" height="128" rx="30" fill="url(#bg)"/>
  <path d="M19 76C24 42 46 20 80 17c14-1 24 2 32 7" fill="none" stroke="url(#ring)" stroke-width="8" stroke-linecap="round" opacity="0.95" filter="url(#glow)"/>
  <path d="M105 50c-8-9-20-14-34-14-25 0-43 17-43 43 0 20 14 34 36 34 22 0 37-13 37-31 0-16-12-26-30-26-14 0-24 6-30 16" fill="none" stroke="#f8fbff" stroke-width="10" stroke-linecap="round" stroke-linejoin="round"/>
  <path d="M48 82c3-8 11-13 23-13 10 0 16 5 16 13 0 9-8 16-21 16-11 0-18-6-18-16Z" fill="#03040a" stroke="#22d3ee" stroke-width="5" filter="url(#glow)"/>
  <text x="64" y="82" text-anchor="middle" font-family="Arial, Helvetica, sans-serif" font-size="32" font-weight="900" letter-spacing="-3" fill="#ff2ec4" filter="url(#glow)">G6</text>
</svg>
